<?xml version="1.0" encoding="UTF-8" standalone="no"?>
<svg
   xmlns:dc="http://purl.org/dc/elements/1.1/"
   xmlns:cc="http://creativecommons.org/ns#"
   xmlns:rdf="http://www.w3.org/1999/02/22-rdf-syntax-ns#"
   xmlns:svg="http://www.w3.org/2000/svg"
   xmlns="http://www.w3.org/2000/svg"
   xmlns:sodipodi="http://sodipodi.sourceforge.net/DTD/sodipodi-0.dtd"
   xmlns:inkscape="http://www.inkscape.org/namespaces/inkscape"
   width="6000"
   height="6000"
   viewBox="0 0 1587.5 1587.5"
   version="1.1"
   id="svg8"
   inkscape:export-filename="C:\personal\processing\Main\tiles\pattern\C\tile1.png"
   inkscape:export-xdpi="96"
   inkscape:export-ydpi="96"
   inkscape:version="1.0.2-2 (e86c870879, 2021-01-15)"
   sodipodi:docname="base.svg">
  <defs
     id="defs2" />
  <sodipodi:namedview
     id="base"
     pagecolor="#ffffff"
     bordercolor="#666666"
     borderopacity="1.0"
     inkscape:pageopacity="0"
     inkscape:pageshadow="2"
     inkscape:zoom="0.12374369"
     inkscape:cx="2930.9248"
     inkscape:cy="2306.3138"
     inkscape:document-units="px"
     inkscape:current-layer="layer1"
     inkscape:document-rotation="0"
     showgrid="false"
     inkscape:pagecheckerboard="true"
     units="px"
     showguides="false"
     inkscape:window-width="1920"
     inkscape:window-height="991"
     inkscape:window-x="-9"
     inkscape:window-y="-9"
     inkscape:window-maximized="1"
     inkscape:snap-object-midpoints="true"
     inkscape:snap-center="true"
     inkscape:snap-page="true" />
  <metadata
     id="metadata5">
    <rdf:RDF>
      <cc:Work
         rdf:about="">
        <dc:format>image/svg+xml</dc:format>
        <dc:type
           rdf:resource="http://purl.org/dc/dcmitype/StillImage" />
        <dc:title></dc:title>
      </cc:Work>
    </rdf:RDF>
  </metadata>
  <g
     inkscape:label="Livello 1"
     inkscape:groupmode="layer"
     id="layer1">
    <path
       id="path839"
       style="fill:#ffffff;fill-opacity:1;stroke:none;stroke-width:5.69756"
       d="m 2000,0 a 4000.0002,4000.0002 0 0 0 535.8984,2000 H 3333.334 L 4000,0 Z"
       transform="scale(0.26458333)" />
    <path
       id="rect857"
       style="fill:#ffffff;fill-opacity:1;stroke:none;stroke-width:1.00157"
       d="M 0,2000 V 4000 H 2666.666 L 2000,6000 h 2000 l 666.668,-2000 68.4218,-205.2676 a 4000,4000 0 0 1 -0.025,-0.01 4000,4000 0 0 1 -5.0196,-1.6778 4000,4000 0 0 1 -0.023,-0.01 4000,4000 0 0 1 -5.0176,-1.6836 4000,4000 0 0 1 -0.023,-0.01 4000,4000 0 0 1 -10.0528,-3.3965 4000,4000 0 0 1 -0.025,-0.012 4000,4000 0 0 1 -5.0117,-1.7031 4000,4000 0 0 1 -0.025,-0.01 4000,4000 0 0 1 -5.0078,-1.7109 4000,4000 0 0 1 -0.021,-0.01 4000,4000 0 0 1 -10.0351,-3.4492 4000,4000 0 0 1 -0.025,-0.01 4000,4000 0 0 1 -5,-1.7324 4000,4000 0 0 1 -0.025,-0.01 4000,4000 0 0 1 -4.998,-1.7363 4000,4000 0 0 1 -0.025,-0.01 4000,4000 0 0 1 -4.9961,-1.7441 4000,4000 0 0 1 -0.025,-0.01 4000,4000 0 0 1 -4.9922,-1.7519 4000,4000 0 0 1 -0.025,-0.01 4000,4000 0 0 1 -4.9922,-1.7578 4000,4000 0 0 1 -0.023,-0.01 4000,4000 0 0 1 -4.9903,-1.7636 4000,4000 0 0 1 -0.025,-0.012 4000,4000 0 0 1 -4.9863,-1.7714 4000,4000 0 0 1 -0.025,-0.01 4000,4000 0 0 1 -4.9843,-1.7774 4000,4000 0 0 1 -0.025,-0.01 4000,4000 0 0 1 -4.9825,-1.7832 4000,4000 0 0 1 -0.021,-0.01 4000,4000 0 0 1 -4.9805,-1.791 4000,4000 0 0 1 -5.0039,-1.8066 4000,4000 0 0 1 -0.024,-0.01 4000,4000 0 0 1 -4.9765,-1.8027 4000,4000 0 0 1 -0.024,-0.01 4000,4000 0 0 1 -18.9179,-6.9258 4000,4000 0 0 1 -1.0586,-0.3906 4000,4000 0 0 1 -0.9473,-0.3496 4000,4000 0 0 1 -7.0488,-2.6114 4000,4000 0 0 1 -1.9766,-0.7363 4000,4000 0 0 1 -1.8945,-0.7051 4000,4000 0 0 1 -13.0234,-4.8808 4000,4000 0 0 1 -0.024,-0.01 4000,4000 0 0 1 -9.9258,-3.7558 4000,4000 0 0 1 -0.023,-0.01 4000,4000 0 0 1 -2.8047,-1.0684 4000,4000 0 0 1 -2.166,-0.8242 4000,4000 0 0 1 -4.9434,-1.8887 4000,4000 0 0 1 -0.025,-0.012 4000,4000 0 0 1 -0.043,-0.016 4000,4000 0 0 1 -9.8613,-3.791 4000,4000 0 0 1 -0.024,-0.01 4000,4000 0 0 1 -9.8945,-3.8359 4000,4000 0 0 1 -0.021,-0.01 4000,4000 0 0 1 -3.3359,-1.3008 4000,4000 0 0 1 -1.6192,-0.6308 4000,4000 0 0 1 -4.9297,-1.9278 4000,4000 0 0 1 -0.023,-0.01 4000,4000 0 0 1 -1.0078,-0.3946 4000,4000 0 0 1 -42.7539,-17.0605 4000,4000 0 0 1 -0.6953,-0.2813 4000,4000 0 0 1 -0.5821,-0.2363 4000,4000 0 0 1 -13.8906,-5.6699 4000,4000 0 0 1 -0.2988,-0.1231 4000,4000 0 0 1 -4.8945,-2.0136 4000,4000 0 0 1 -0.023,-0.01 4000,4000 0 0 1 -4.8926,-2.0195 4000,4000 0 0 1 -0.023,-0.01 4000,4000 0 0 1 -0.082,-0.033 4000,4000 0 0 1 -19.5313,-8.1406 4000,4000 0 0 1 -0.023,-0.01 4000,4000 0 0 1 -4.877,-2.0527 4000,4000 0 0 1 -0.023,-0.01 4000,4000 0 0 1 -4.875,-2.0586 4000,4000 0 0 1 -0.023,-0.01 4000,4000 0 0 1 -4.8731,-2.0664 4000,4000 0 0 1 -0.023,-0.012 4000,4000 0 0 1 -9.7618,-4.1601 4000,4000 0 0 1 -0.023,-0.01 4000,4000 0 0 1 -4.8652,-2.084 4000,4000 0 0 1 -0.024,-0.01 4000,4000 0 0 1 -4.8613,-2.0918 4000,4000 0 0 1 -0.025,-0.01 4000,4000 0 0 1 -4.8574,-2.0977 4000,4000 0 0 1 -0.025,-0.01 4000,4000 0 0 1 -4.8555,-2.1055 4000,4000 0 0 1 -0.023,-0.01 4000,4000 0 0 1 -4.8535,-2.1113 4000,4000 0 0 1 -0.024,-0.01 4000,4000 0 0 1 -4.8515,-2.1172 4000,4000 0 0 1 -0.021,-0.01 4000,4000 0 0 1 -4.8477,-2.123 4000,4000 0 0 1 -0.023,-0.012 4000,4000 0 0 1 -4.8457,-2.1308 4000,4000 0 0 1 -0.025,-0.01 4000,4000 0 0 1 -4.8418,-2.1367 4000,4000 0 0 1 -0.021,-0.01 4000,4000 0 0 1 -4.8398,-2.1445 4000,4000 0 0 1 -0.023,-0.01 4000,4000 0 0 1 -4.8359,-2.1484 4000,4000 0 0 1 -0.023,-0.01 4000,4000 0 0 1 -4.834,-2.1562 4000,4000 0 0 1 -0.023,-0.01 4000,4000 0 0 1 -14.5313,-6.5273 4000,4000 0 0 1 -0.023,-0.01 4000,4000 0 0 1 -4.8223,-2.1816 4000,4000 0 0 1 -0.025,-0.01 4000,4000 0 0 1 -4.8183,-2.1895 4000,4000 0 0 1 -0.023,-0.012 4000,4000 0 0 1 -4.8164,-2.1953 4000,4000 0 0 1 -0.023,-0.01 4000,4000 0 0 1 -4.8145,-2.2011 4000,4000 0 0 1 -0.021,-0.01 4000,4000 0 0 1 -4.8105,-2.207 4000,4000 0 0 1 -0.025,-0.01 4000,4000 0 0 1 -4.8066,-2.2148 4000,4000 0 0 1 -0.022,-0.01 4000,4000 0 0 1 -4.8047,-2.2207 4000,4000 0 0 1 -0.025,-0.01 4000,4000 0 0 1 -9.6231,-4.4707 4000,4000 0 0 1 -0.023,-0.01 4000,4000 0 0 1 -4.7969,-2.2403 4000,4000 0 0 1 -0.023,-0.01 4000,4000 0 0 1 -9.6055,-4.5079 4000,4000 0 0 1 -0.025,-0.01 4000,4000 0 0 1 -4.7871,-2.2598 4000,4000 0 0 1 -0.021,-0.012 4000,4000 0 0 1 -4.7832,-2.2637 4000,4000 0 0 1 -0.025,-0.012 4000,4000 0 0 1 -4.7793,-2.2715 4000,4000 0 0 1 -0.021,-0.01 4000,4000 0 0 1 -4.7774,-2.2774 4000,4000 0 0 1 -0.025,-0.012 4000,4000 0 0 1 -4.7734,-2.2832 4000,4000 0 0 1 -8.543,-4.1055 4000,4000 0 0 1 -1.0664,-0.5137 4000,4000 0 0 1 -0.9609,-0.4648 4000,4000 0 0 1 -27.211,-13.2578 4000,4000 0 0 1 -0.5156,-0.2539 4000,4000 0 0 1 -4.7461,-2.3399 4000,4000 0 0 1 -0.023,-0.012 4000,4000 0 0 1 -0.293,-0.1445 4000,4000 0 0 1 -9.0156,-4.4668 4000,4000 0 0 1 -0.2227,-0.1113 4000,4000 0 0 1 -4.7363,-2.3594 4000,4000 0 0 1 -0.023,-0.012 4000,4000 0 0 1 -4.7344,-2.3653 4000,4000 0 0 1 -0.01,0 4000,4000 0 0 1 -4.748,-2.3789 4000,4000 0 0 1 -0.024,-0.012 4000,4000 0 0 1 -14.2207,-7.1758 4000,4000 0 0 1 -0.023,-0.012 4000,4000 0 0 1 -9.457,-4.8125 4000,4000 0 0 1 -0.024,-0.014 4000,4000 0 0 1 -18.8984,-9.7109 4000,4000 0 0 1 -0.023,-0.012 4000,4000 0 0 1 -1.9453,-1.0078 4000,4000 0 0 1 -2.7754,-1.4375 4000,4000 0 0 1 -4.6973,-2.4414 4000,4000 0 0 1 -0.023,-0.012 4000,4000 0 0 1 -4.6915,-2.4473 4000,4000 0 0 1 -0.023,-0.012 4000,4000 0 0 1 -4.6894,-2.4532 4000,4000 0 0 1 -0.021,-0.012 4000,4000 0 0 1 -9.3907,-4.9375 4000,4000 0 0 1 -0.023,-0.012 4000,4000 0 0 1 -4.6797,-2.4727 4000,4000 0 0 1 -0.023,-0.012 4000,4000 0 0 1 -4.6758,-2.4785 4000,4000 0 0 1 -0.023,-0.014 4000,4000 0 0 1 -3.3282,-1.7695 4000,4000 0 0 1 -1.3671,-0.7266 4000,4000 0 0 1 -4.67,-2.4902 4000,4000 0 0 1 -0.023,-0.012 4000,4000 0 0 1 -4.666,-2.4981 4000,4000 0 0 1 -0.021,-0.012 4000,4000 0 0 1 -4.6621,-2.5039 4000,4000 0 0 1 -0.023,-0.012 4000,4000 0 0 1 -4.6602,-2.5098 4000,4000 0 0 1 -0.023,-0.012 4000,4000 0 0 1 -4.1641,-2.25 4000,4000 0 0 1 -0.5137,-0.2773 4000,4000 0 0 1 -4.6543,-2.5215 4000,4000 0 0 1 -0.022,-0.012 4000,4000 0 0 1 -4.6504,-2.5293 4000,4000 0 0 1 -0.023,-0.012 4000,4000 0 0 1 -4.6211,-2.5196 4000,4000 0 0 1 -0.027,-0.018 4000,4000 0 0 1 -4.6621,-2.5488 4000,4000 0 0 1 -0.021,-0.014 4000,4000 0 0 1 -4.6426,-2.5468 4000,4000 0 0 1 -0.019,-0.012 4000,4000 0 0 1 -4.6367,-2.5528 4000,4000 0 0 1 -0.023,-0.012 4000,4000 0 0 1 -4.6328,-2.5605 4000,4000 0 0 1 -0.021,-0.012 4000,4000 0 0 1 -4.6308,-2.5644 4000,4000 0 0 1 -0.022,-0.012 4000,4000 0 0 1 -4.627,-2.5723 4000,4000 0 0 1 -0.019,-0.012 4000,4000 0 0 1 -4.6231,-2.5781 4000,4000 0 0 1 -0.023,-0.014 4000,4000 0 0 1 -4.6191,-2.584 4000,4000 0 0 1 -0.021,-0.012 4000,4000 0 0 1 -4.6172,-2.5899 4000,4000 0 0 1 -0.021,-0.012 4000,4000 0 0 1 -4.6133,-2.5957 4000,4000 0 0 1 -0.019,-0.012 4000,4000 0 0 1 -4.6094,-2.6035 4000,4000 0 0 1 -3.6914,-2.0899 4000,4000 0 0 1 -0.959,-0.5429 4000,4000 0 0 1 -0.8515,-0.4825 4000,4000 0 0 1 -17.0664,-9.7402 4000,4000 0 0 1 -0.5586,-0.3203 4000,4000 0 0 1 -0.4512,-0.2598 4000,4000 0 0 1 -6.8418,-3.9394 4000,4000 0 0 1 -1.9238,-1.1094 4000,4000 0 0 1 -4.5821,-2.6504 4000,4000 0 0 1 -0.023,-0.012 4000,4000 0 0 1 -4.5781,-2.6582 4000,4000 0 0 1 -0.022,-0.012 4000,4000 0 0 1 -9.168,-5.3457 4000,4000 0 0 1 -0.022,-0.012 4000,4000 0 0 1 -9.1523,-5.3692 4000,4000 0 0 1 -0.022,-0.012 4000,4000 0 0 1 -2.1992,-1.2969 4000,4000 0 0 1 -2.3828,-1.4043 4000,4000 0 0 1 -1.4278,-0.8418 4000,4000 0 0 1 -10.9667,-6.5039 4000,4000 0 0 1 -1.3301,-0.791 4000,4000 0 0 1 -4.5449,-2.7109 4000,4000 0 0 1 -0.024,-0.016 4000,4000 0 0 1 -7.9824,-4.7812 4000,4000 0 0 1 -1.1406,-0.6856 4000,4000 0 0 1 -4.5352,-2.7285 4000,4000 0 0 1 -0.021,-0.014 4000,4000 0 0 1 -4.5312,-2.7364 4000,4000 0 0 1 -0.021,-0.012 4000,4000 0 0 1 -8.1817,-4.959 4000,4000 0 0 1 -0.914,-0.5566 4000,4000 0 0 1 -0.836,-0.5078 4000,4000 0 0 1 -8.2226,-5.0196 4000,4000 0 0 1 -0.019,-0.012 4000,4000 0 0 1 -4.5118,-2.7656 4000,4000 0 0 1 -0.023,-0.014 4000,4000 0 0 1 -4.5078,-2.7715 4000,4000 0 0 1 -0.023,-0.014 4000,4000 0 0 1 -4.5039,-2.7774 4000,4000 0 0 1 -0.024,-0.016 4000,4000 0 0 1 -4.5,-2.7832 4000,4000 0 0 1 -0.025,-0.014 4000,4000 0 0 1 -4.4941,-2.789 4000,4000 0 0 1 -0.023,-0.014 4000,4000 0 0 1 -3.3437,-2.0801 4000,4000 0 0 1 -1.1719,-0.7285 4000,4000 0 0 1 -4.4902,-2.8008 4000,4000 0 0 1 -0.021,-0.014 4000,4000 0 0 1 -0.3164,-0.1953 4000,4000 0 0 1 -8.418,-5.2793 4000,4000 0 0 1 -0.2812,-0.1738 4000,4000 0 0 1 -4.4766,-2.8184 4000,4000 0 0 1 -0.023,-0.014 4000,4000 0 0 1 -4.1035,-2.5918 4000,4000 0 0 1 -0.3926,-0.2481 4000,4000 0 0 1 -4.4727,-2.8301 4000,4000 0 0 1 -0.022,-0.014 4000,4000 0 0 1 -4.4668,-2.8379 4000,4000 0 0 1 -0.023,-0.016 4000,4000 0 0 1 -8.9453,-5.7051 4000,4000 0 0 1 -0.021,-0.014 4000,4000 0 0 1 -4.457,-2.8555 4000,4000 0 0 1 -0.022,-0.014 4000,4000 0 0 1 -4.4531,-2.8614 4000,4000 0 0 1 -0.022,-0.014 4000,4000 0 0 1 -4.4492,-2.8672 4000,4000 0 0 1 -0.02,-0.014 4000,4000 0 0 1 -26.7207,-17.3945 4000,4000 0 0 1 -0.021,-0.016 4000,4000 0 0 1 -4.4218,-2.9082 4000,4000 0 0 1 -0.021,-0.014 4000,4000 0 0 1 -8.8555,-5.8477 4000,4000 0 0 1 -0.021,-0.014 4000,4000 0 0 1 -4.4101,-2.9258 4000,4000 0 0 1 -0.02,-0.014 4000,4000 0 0 1 -4.4062,-2.9316 4000,4000 0 0 1 -0.022,-0.014 4000,4000 0 0 1 -4.4023,-2.9375 4000,4000 0 0 1 -0.022,-0.014 4000,4000 0 0 1 -4.3985,-2.9453 4000,4000 0 0 1 -0.021,-0.016 4000,4000 0 0 1 -4.3946,-2.9492 4000,4000 0 0 1 -0.021,-0.014 4000,4000 0 0 1 -8.8007,-5.9297 4000,4000 0 0 1 -0.021,-0.014 4000,4000 0 0 1 -4.3828,-2.9668 4000,4000 0 0 1 -0.022,-0.014 4000,4000 0 0 1 -4.3789,-2.9746 4000,4000 0 0 1 -0.02,-0.014 4000,4000 0 0 1 -4.375,-2.9785 4000,4000 0 0 1 -0.021,-0.014 4000,4000 0 0 1 -4.3711,-2.9844 4000,4000 0 0 1 -0.022,-0.016 4000,4000 0 0 1 -4.3653,-2.9902 4000,4000 0 0 1 -0.021,-0.014 4000,4000 0 0 1 -4.3633,-2.9961 4000,4000 0 0 1 -0.019,-0.014 4000,4000 0 0 1 -2.5059,-1.7265 4000,4000 0 0 1 -1.875,-1.2911 4000,4000 0 0 1 -4.3555,-3.0058 4000,4000 0 0 1 -0.023,-0.016 4000,4000 0 0 1 -4.3516,-3.0137 4000,4000 0 0 1 -0.02,-0.014 4000,4000 0 0 1 -4.3457,-3.0195 4000,4000 0 0 1 -0.021,-0.014 4000,4000 0 0 1 -4.3437,-3.0254 4000,4000 0 0 1 -0.021,-0.016 4000,4000 0 0 1 -4.3379,-3.0313 4000,4000 0 0 1 -0.021,-0.014 4000,4000 0 0 1 -4.3359,-3.0371 4000,4000 0 0 1 -0.02,-0.014 4000,4000 0 0 1 -4.33,-3.043 4000,4000 0 0 1 -0.024,-0.014 4000,4000 0 0 1 -4.3262,-3.0488 4000,4000 0 0 1 -0.019,-0.014 4000,4000 0 0 1 -3.3242,-2.3477 4000,4000 0 0 1 -1.0195,-0.7207 4000,4000 0 0 1 -8.2266,-5.834 4000,4000 0 0 1 -0.4297,-0.3047 4000,4000 0 0 1 -0.019,-0.016 4000,4000 0 0 1 -4.3106,-3.0723 4000,4000 0 0 1 -0.021,-0.014 4000,4000 0 0 1 -3.6914,-2.6368 4000,4000 0 0 1 -0.6367,-0.455 4000,4000 0 0 1 -0.5195,-0.3711 4000,4000 0 0 1 -16.5117,-11.8789 4000,4000 0 0 1 -0.2383,-0.1719 4000,4000 0 0 1 -0.1211,-0.088 4000,4000 0 0 1 -6.6426,-4.8164 4000,4000 0 0 1 -1.8457,-1.3418 4000,4000 0 0 1 -4.2793,-3.1152 4000,4000 0 0 1 -0.019,-0.016 4000,4000 0 0 1 -1.709,-1.248 4000,4000 0 0 1 -11.1426,-8.166 4000,4000 0 0 1 -0.02,-0.014 4000,4000 0 0 1 -4.2617,-3.1387 4000,4000 0 0 1 -0.021,-0.016 4000,4000 0 0 1 -4.2559,-3.1445 4000,4000 0 0 1 -0.019,-0.018 4000,4000 0 0 1 -4.2539,-3.1504 4000,4000 0 0 1 -0.019,-0.016 4000,4000 0 0 1 -8.5137,-6.3321 4000,4000 0 0 1 -0.021,-0.016 4000,4000 0 0 1 -4.2402,-3.1679 4000,4000 0 0 1 -0.02,-0.014 4000,4000 0 0 1 -4.2363,-3.1739 4000,4000 0 0 1 -0.021,-0.016 4000,4000 0 0 1 -4.2304,-3.1777 4000,4000 0 0 1 -0.022,-0.016 4000,4000 0 0 1 -4.2266,-3.1836 4000,4000 0 0 1 -0.023,-0.018 4000,4000 0 0 1 -4.2227,-3.1895 4000,4000 0 0 1 -0.019,-0.016 4000,4000 0 0 1 -4.2188,-3.1953 4000,4000 0 0 1 -0.021,-0.016 4000,4000 0 0 1 -1.9668,-1.4942 4000,4000 0 0 1 -2.2676,-1.7226 4000,4000 0 0 1 -4.211,-3.2071 4000,4000 0 0 1 -0.021,-0.016 4000,4000 0 0 1 -4.2051,-3.2109 4000,4000 0 0 1 -0.024,-0.016 4000,4000 0 0 1 -4.2011,-3.2188 4000,4000 0 0 1 -0.022,-0.018 4000,4000 0 0 1 -4.1973,-3.2226 4000,4000 0 0 1 -0.021,-0.016 4000,4000 0 0 1 -2.5547,-1.9668 4000,4000 0 0 1 -1.6582,-1.2774 4000,4000 0 0 1 -4.1894,-3.2344 4000,4000 0 0 1 -0.018,-0.016 4000,4000 0 0 1 -4.1855,-3.2402 4000,4000 0 0 1 -0.021,-0.016 4000,4000 0 0 1 -2.9219,-2.2696 4000,4000 0 0 1 -1.2773,-0.9922 4000,4000 0 0 1 -4.1778,-3.2519 4000,4000 0 0 1 -0.019,-0.014 4000,4000 0 0 1 -4.1719,-3.2578 4000,4000 0 0 1 -0.021,-0.018 4000,4000 0 0 1 -4.166,-3.2617 4000,4000 0 0 1 -0.021,-0.016 4000,4000 0 0 1 -8.3418,-6.5586 4000,4000 0 0 1 -0.023,-0.016 4000,4000 0 0 1 -4.1543,-3.2793 4000,4000 0 0 1 -3.8184,-3.0215 4000,4000 0 0 1 -0.371,-0.293 4000,4000 0 0 1 -4.1465,-3.291 4000,4000 0 0 1 -0.02,-0.016 4000,4000 0 0 1 -4.1425,-3.295 4000,4000 0 0 1 -0.02,-0.016 4000,4000 0 0 1 -4.1367,-3.3008 4000,4000 0 0 1 -0.021,-0.017 4000,4000 0 0 1 -4.1308,-3.3067 4000,4000 0 0 1 -0.02,-0.016 4000,4000 0 0 1 -4.1269,-3.3125 4000,4000 0 0 1 -0.021,-0.016 4000,4000 0 0 1 -4.123,-3.3184 4000,4000 0 0 1 -0.024,-0.016 4000,4000 0 0 1 -4.1172,-3.3242 4000,4000 0 0 1 -0.022,-0.016 4000,4000 0 0 1 -4.1152,-3.3281 4000,4000 0 0 1 -0.02,-0.016 4000,4000 0 0 1 -4.1114,-3.334 4000,4000 0 0 1 -0.019,-0.018 4000,4000 0 0 1 -8.2285,-6.7011 4000,4000 0 0 1 -0.019,-0.016 4000,4000 0 0 1 -4.0977,-3.3496 4000,4000 0 0 1 -0.019,-0.016 4000,4000 0 0 1 -8.2012,-6.7344 4000,4000 0 0 1 -0.018,-0.016 4000,4000 0 0 1 -4.084,-3.3672 4000,4000 0 0 1 -0.019,-0.016 4000,4000 0 0 1 -4.0801,-3.3731 4000,4000 0 0 1 -0.019,-0.017 4000,4000 0 0 1 -6.6348,-5.502 4000,4000 0 0 1 -1.5507,-1.291 4000,4000 0 0 1 -4.0664,-3.3887 4000,4000 0 0 1 -0.02,-0.016 4000,4000 0 0 1 -1.4414,-1.2051 4000,4000 0 0 1 -2.6387,-2.2051 4000,4000 0 0 1 -4.0585,-3.3984 4000,4000 0 0 1 -0.02,-0.016 4000,4000 0 0 1 -8.1191,-6.8321 4000,4000 0 0 1 -0.02,-0.016 4000,4000 0 0 1 -6.9453,-5.873 4000,4000 0 0 1 -1.1757,-0.9961 4000,4000 0 0 1 -4.0352,-3.4258 4000,4000 0 0 1 -0.02,-0.016 4000,4000 0 0 1 -2.0821,-1.7735 4000,4000 0 0 1 -1.9668,-1.6757 4000,4000 0 0 1 -4.0254,-3.4356 4000,4000 0 0 1 -0.019,-0.018 4000,4000 0 0 1 -4.0215,-3.4414 4000,4000 0 0 1 -0.019,-0.016 4000,4000 0 0 1 -4.0156,-3.4492 4000,4000 0 0 1 -0.02,-0.018 4000,4000 0 0 1 -4.0117,-3.4531 4000,4000 0 0 1 -0.02,-0.016 4000,4000 0 0 1 -4.0059,-3.4589 4000,4000 0 0 1 -0.02,-0.016 4000,4000 0 0 1 -4.002,-3.4648 4000,4000 0 0 1 -0.019,-0.016 4000,4000 0 0 1 -3.998,-3.4688 4000,4000 0 0 1 -0.02,-0.016 4000,4000 0 0 1 -2.8086,-2.4453 4000,4000 0 0 1 -1.2031,-1.0469 4000,4000 0 0 1 -3.9883,-3.4785 4000,4000 0 0 1 -0.019,-0.018 4000,4000 0 0 1 -3.9844,-3.4863 4000,4000 0 0 1 -0.02,-0.016 4000,4000 0 0 1 -3.0742,-2.6973 4000,4000 0 0 1 -0.9238,-0.8105 4000,4000 0 0 1 -3.9747,-3.4942 4000,4000 0 0 1 -0.019,-0.018 4000,4000 0 0 1 -3.9687,-3.5 4000,4000 0 0 1 -0.02,-0.017 4000,4000 0 0 1 -3.9648,-3.5059 4000,4000 0 0 1 -0.018,-0.016 4000,4000 0 0 1 -3.4297,-3.041 4000,4000 0 0 1 -0.5508,-0.4883 4000,4000 0 0 1 -3.955,-3.5157 4000,4000 0 0 1 -0.02,-0.019 4000,4000 0 0 1 -3.9511,-3.5215 4000,4000 0 0 1 -0.021,-0.016 4000,4000 0 0 1 -3.6953,-3.3027 4000,4000 0 0 1 -0.2715,-0.2422 4000,4000 0 0 1 -3.9414,-3.5313 4000,4000 0 0 1 -0.018,-0.016 4000,4000 0 0 1 -0.051,-0.043 4000,4000 0 0 1 -7.8379,-7.0527 4000,4000 0 0 1 -0.018,-0.02 4000,4000 0 0 1 -3.9277,-3.5469 4000,4000 0 0 1 -0.021,-0.018 4000,4000 0 0 1 -3.9218,-3.5527 4000,4000 0 0 1 -0.018,-0.018 4000,4000 0 0 1 -7.8516,-7.1387 4000,4000 0 0 1 -0.021,-0.017 4000,4000 0 0 1 -3.9082,-3.5684 4000,4000 0 0 1 -0.02,-0.018 4000,4000 0 0 1 -3.9024,-3.5722 4000,4000 0 0 1 -0.019,-0.018 4000,4000 0 0 1 -11.7207,-10.7871 4000,4000 0 0 1 -0.02,-0.018 4000,4000 0 0 1 -3.8848,-3.5938 4000,4000 0 0 1 -0.019,-0.019 4000,4000 0 0 1 -3.8789,-3.5996 4000,4000 0 0 1 -0.019,-0.018 4000,4000 0 0 1 -7.7657,-7.2324 4000,4000 0 0 1 -0.018,-0.016 4000,4000 0 0 1 -7.746,-7.2539 4000,4000 0 0 1 -0.02,-0.018 4000,4000 0 0 1 -3.8554,-3.625 4000,4000 0 0 1 -0.02,-0.018 4000,4000 0 0 1 -3.8496,-3.6308 4000,4000 0 0 1 -0.019,-0.018 4000,4000 0 0 1 -3.8457,-3.6348 4000,4000 0 0 1 -0.02,-0.018 4000,4000 0 0 1 -1.9316,-1.83 4000,4000 0 0 1 -1.9277,-1.8282 4000,4000 0 0 1 -3.8379,-3.6465 4000,4000 0 0 1 -0.018,-0.02 4000,4000 0 0 1 -3.832,-3.6504 4000,4000 0 0 1 -0.02,-0.016 4000,4000 0 0 1 -3.8261,-3.6563 4000,4000 0 0 1 -0.02,-0.019 4000,4000 0 0 1 -2.2988,-2.2012 4000,4000 0 0 1 -1.541,-1.4765 4000,4000 0 0 1 -3.8184,-3.666 4000,4000 0 0 1 -0.018,-0.018 4000,4000 0 0 1 -3.8125,-3.6719 4000,4000 0 0 1 -0.02,-0.018 4000,4000 0 0 1 -3.8066,-3.6757 4000,4000 0 0 1 -0.019,-0.018 4000,4000 0 0 1 -2.6758,-2.5918 4000,4000 0 0 1 -1.1446,-1.1074 4000,4000 0 0 1 -3.7988,-3.6875 4000,4000 0 0 1 -0.018,-0.018 4000,4000 0 0 1 -3.7929,-3.6914 4000,4000 0 0 1 -0.02,-0.02 4000,4000 0 0 1 -2.9394,-2.8691 4000,4000 0 0 1 -0.8653,-0.8438 4000,4000 0 0 1 -3.7832,-3.7031 4000,4000 0 0 1 -0.018,-0.018 4000,4000 0 0 1 -3.7774,-3.707 4000,4000 0 0 1 -0.021,-0.018 4000,4000 0 0 1 -3.7714,-3.7109 4000,4000 0 0 1 -0.018,-0.018 4000,4000 0 0 1 -3.7676,-3.7168 4000,4000 0 0 1 -0.02,-0.018 4000,4000 0 0 1 -3.7618,-3.7226 4000,4000 0 0 1 -0.019,-0.019 4000,4000 0 0 1 -3.4746,-3.4454 4000,4000 0 0 1 -0.3008,-0.2988 4000,4000 0 0 1 -3.7539,-3.7324 4000,4000 0 0 1 -0.019,-0.018 4000,4000 0 0 1 -3.75,-3.7363 4000,4000 0 0 1 -0.018,-0.018 4000,4000 0 0 1 -3.7441,-3.7422 4000,4000 0 0 1 -3.752,-3.7597 4000,4000 0 0 1 -0.018,-0.018 4000,4000 0 0 1 -3.7343,-3.752 4000,4000 0 0 1 -0.018,-0.017 4000,4000 0 0 1 -7.4707,-7.5372 4000,4000 0 0 1 -0.018,-0.017 4000,4000 0 0 1 -0.4219,-0.4278 4000,4000 0 0 1 -3.3144,-3.3574 4000,4000 0 0 1 -3.7149,-3.7715 4000,4000 0 0 1 -0.017,-0.016 4000,4000 0 0 1 -3.709,-3.7754 4000,4000 0 0 1 -0.018,-0.02 4000,4000 0 0 1 -3.7031,-3.7832 4000,4000 0 0 1 -0.02,-0.018 4000,4000 0 0 1 -3.6992,-3.7852 4000,4000 0 0 1 -0.018,-0.017 4000,4000 0 0 1 -3.6933,-3.793 4000,4000 0 0 1 -0.018,-0.018 4000,4000 0 0 1 -0.9492,-0.9766 4000,4000 0 0 1 -2.7578,-2.8378 4000,4000 0 0 1 -3.6836,-3.8008 4000,4000 0 0 1 -0.018,-0.018 4000,4000 0 0 1 -3.6777,-3.8066 4000,4000 0 0 1 -0.018,-0.018 4000,4000 0 0 1 -3.6738,-3.8106 4000,4000 0 0 1 -0.02,-0.018 4000,4000 0 0 1 -3.6679,-3.8165 4000,4000 0 0 1 -0.018,-0.019 4000,4000 0 0 1 -1.4063,-1.4668 4000,4000 0 0 1 -2.2754,-2.373 4000,4000 0 0 1 -3.6582,-3.8242 4000,4000 0 0 1 -0.018,-0.018 4000,4000 0 0 1 -3.6524,-3.8301 4000,4000 0 0 1 -0.018,-0.019 4000,4000 0 0 1 -3.6484,-3.836 4000,4000 0 0 1 -0.018,-0.017 4000,4000 0 0 1 -3.6426,-3.8399 4000,4000 0 0 1 -0.019,-0.018 4000,4000 0 0 1 -3.6387,-3.8457 4000,4000 0 0 1 -0.016,-0.018 4000,4000 0 0 1 -3.6308,-3.8496 4000,4000 0 0 1 -0.02,-0.019 4000,4000 0 0 1 -2.5703,-2.7305 A 4000,4000 0 0 1 2535.8984,2000 Z"
       transform="scale(0.26458333)" />
    <path
       id="path839-5"
       style="fill:#ffffff;fill-opacity:1;stroke:none;stroke-width:5.69756"
       d="M 5333.334,2000 4735.0898,3794.7324 A 4000.0002,4000.0002 0 0 0 6000,4000 V 2000 Z"
       transform="scale(0.26458333)" />
  </g>
</svg>
